<svg xmlns="http://www.w3.org/2000/svg" width="32" height="32" viewBox="0 0 24 24" fill="none" stroke="#FF4500" stroke-width="2" stroke-linecap="round" stroke-linejoin="round">
  <path d="M8 16c3.314 0 6-2 6-5.5S11.314 5 8 5s-6 2-6 5.5S4.686 16 8 16z"></path>
  <path d="M10.67 13.33c4.97 0 9-2.53 9-5.66S15.64 2 10.67 2s-9 2.53-9 5.67 4.03 5.66 9 5.66z"></path>
  <path d="M14.8 14.4c5.3 0 9.6-2.53 9.6-5.66S20.1 3.07 14.8 3.07s-9.6 2.54-9.6 5.67 4.3 5.66 9.6 5.66z"></path>
  <path d="M14.8 14.4c-4.34 1.33-7.2 4.67-7.2 8.27"></path>
  <path d="M10.67 13.33C6.1 14.34 2.67 17.1 2.67 20.67"></path>
  <path d="M8 16c-4.67 1.33-8 4.67-8 8"></path>
</svg>
