<svg xmlns="http://www.w3.org/2000/svg" width="32" height="32" viewBox="0 0 24 24" fill="none" stroke="#DAA520" stroke-width="2" stroke-linecap="round" stroke-linejoin="round">
  <path d="M8 2c1.181.3 1.431 1.75 1.5 3v.172m1.307 11.104 4.5-1a3 3 0 0 1 3.693 2.894 1 1 0 0 1-1 1h-13a1 1 0 0 1-1-1 3 3 0 0 1 3.64-2.937z"></path>
  <path d="M13.5 10a3.5 3.5 0 1 1-7 0 3.5 3.5 0 0 1 7 0z"></path>
  <path d="M5 22v-1a2 2 0 0 1 2-2h10a2 2 0 0 1 2 2v1"></path>
  <path d="M18.5 5.5a3.5 3.5 0 1 1-7 0 3.5 3.5 0 0 1 7 0z"></path>
</svg>
